# xmcd CD database file
#
# Track frame offsets:
#	150
#	16400
#	33414
#	53699
#	72759
#	93458
#	107802
#	127744
#	149103
#	166156
#
# Disc length: 2463 seconds
#
# Revision: 0
# Processed by: cddbd v1.5.2PL0 Copyright (c) Steve Scherf et al.
# Submitted via: CDex 1.79
#
DISCID=82099d0a
DTITLE=La Banda Rock Country - Sigue Tu Destino
DYEAR=2016
DGENRE=Country
TTITLE0=Take it easy
TTITLE1=Lo que nos dijimos
TTITLE2=Atrapada
TTITLE3=Give a little
TTITLE4=Buenos tiempos
TTITLE5=La cueva
TTITLE6=Simanim
TTITLE7=Who is Miss Freezy?
TTITLE8=Candyman
TTITLE9=Si el destino se viste de azar
EXTD=YEAR: 2016
EXTT0=
EXTT1=
EXTT2=
EXTT3=
EXTT4=
EXTT5=
EXTT6=
EXTT7=
EXTT8=
EXTT9=
PLAYORDER=
